<svg width="194" height="48" viewBox="0 0 194 48" fill="none" xmlns="http://www.w3.org/2000/svg">
<rect width="48" height="48" rx="8" fill="#111827"/>
<path d="M57.0043 8.81818H59.2614L62.2841 16.196H62.4034L65.4261 8.81818H67.6832V19H65.9134V12.005H65.8189L63.005 18.9702H61.6825L58.8686 11.9901H58.7741V19H57.0043V8.81818ZM70.7308 21.8636C70.4856 21.8636 70.2585 21.8438 70.0497 21.804C69.8442 21.7675 69.6802 21.7244 69.5575 21.6747L69.9751 20.2727C70.237 20.349 70.4706 20.3854 70.6761 20.3821C70.8816 20.3788 71.0623 20.3142 71.218 20.1882C71.3771 20.0656 71.5114 19.8601 71.6207 19.5717L71.7749 19.1591L69.0057 11.3636H70.9148L72.6747 17.1307H72.7543L74.5192 11.3636H76.4332L73.3757 19.9247C73.2332 20.3291 73.0443 20.6754 72.8089 20.9638C72.5736 21.2554 72.2853 21.4775 71.9439 21.63C71.6058 21.7857 71.2015 21.8636 70.7308 21.8636ZM86.7642 11.6172C86.7178 11.183 86.5223 10.8449 86.1776 10.603C85.8362 10.361 85.392 10.2401 84.8452 10.2401C84.4607 10.2401 84.1309 10.2981 83.8558 10.4141C83.5807 10.5301 83.3703 10.6875 83.2244 10.8864C83.0786 11.0852 83.004 11.3123 83.0007 11.5675C83.0007 11.7796 83.0488 11.9635 83.1449 12.1193C83.2443 12.2751 83.3786 12.4077 83.5476 12.517C83.7166 12.6231 83.9039 12.7126 84.1094 12.7855C84.3149 12.8584 84.522 12.9197 84.7308 12.9695L85.6854 13.2081C86.0698 13.2976 86.4394 13.4186 86.794 13.571C87.152 13.7235 87.4718 13.9157 87.7536 14.1477C88.0386 14.3797 88.264 14.6598 88.4297 14.9879C88.5954 15.3161 88.6783 15.7005 88.6783 16.1413C88.6783 16.7379 88.5258 17.2633 88.2209 17.7173C87.916 18.1681 87.4751 18.5211 86.8984 18.7763C86.325 19.0282 85.6307 19.1541 84.8153 19.1541C84.0232 19.1541 83.3355 19.0315 82.7521 18.7862C82.1721 18.541 81.718 18.183 81.3899 17.7124C81.0651 17.2417 80.8894 16.6683 80.8629 15.9922H82.6776C82.7041 16.3468 82.8134 16.6418 83.0057 16.8771C83.1979 17.1125 83.4482 17.2881 83.7564 17.4041C84.0679 17.5201 84.416 17.5781 84.8004 17.5781C85.2015 17.5781 85.5528 17.5185 85.8544 17.3991C86.1593 17.2765 86.398 17.1075 86.5703 16.892C86.7427 16.6733 86.8305 16.4181 86.8338 16.1264C86.8305 15.8613 86.7526 15.6425 86.6001 15.4702C86.4477 15.2945 86.2339 15.1487 85.9588 15.0327C85.687 14.9134 85.3688 14.8073 85.0043 14.7145L83.8459 14.4162C83.0073 14.2008 82.3445 13.8743 81.8572 13.4368C81.3733 12.996 81.1314 12.411 81.1314 11.6818C81.1314 11.0819 81.2938 10.5566 81.6186 10.1058C81.9467 9.65507 82.3925 9.3054 82.956 9.05682C83.5194 8.80492 84.1574 8.67898 84.87 8.67898C85.5926 8.67898 86.2256 8.80492 86.7692 9.05682C87.3161 9.3054 87.7453 9.65175 88.0568 10.0959C88.3684 10.5367 88.5291 11.0438 88.5391 11.6172H86.7642ZM94.0563 11.3636V12.7557H89.6664V11.3636H94.0563ZM90.7502 9.53409H92.5499V16.7031C92.5499 16.9451 92.5864 17.1307 92.6593 17.2599C92.7355 17.3859 92.8349 17.4721 92.9576 17.5185C93.0802 17.5649 93.2161 17.5881 93.3652 17.5881C93.4779 17.5881 93.5807 17.5798 93.6735 17.5632C93.7696 17.5466 93.8425 17.5317 93.8922 17.5185L94.1955 18.9254C94.0994 18.9586 93.9618 18.995 93.7828 19.0348C93.6072 19.0746 93.3917 19.0978 93.1365 19.1044C92.6858 19.1177 92.2798 19.0497 91.9185 18.9006C91.5572 18.7481 91.2705 18.5128 91.0584 18.1946C90.8496 17.8764 90.7469 17.4787 90.7502 17.0014V9.53409ZM98.8104 19.1491C98.0646 19.1491 97.4183 18.9851 96.8714 18.657C96.3246 18.3288 95.9003 17.8698 95.5987 17.2798C95.3004 16.6899 95.1513 16.0005 95.1513 15.2116C95.1513 14.4228 95.3004 13.7318 95.5987 13.1385C95.9003 12.5452 96.3246 12.0845 96.8714 11.7564C97.4183 11.4283 98.0646 11.2642 98.8104 11.2642C99.5561 11.2642 100.202 11.4283 100.749 11.7564C101.296 12.0845 101.719 12.5452 102.017 13.1385C102.319 13.7318 102.469 14.4228 102.469 15.2116C102.469 16.0005 102.319 16.6899 102.017 17.2798C101.719 17.8698 101.296 18.3288 100.749 18.657C100.202 18.9851 99.5561 19.1491 98.8104 19.1491ZM98.8203 17.7074C99.2247 17.7074 99.5627 17.5964 99.8345 17.3743C100.106 17.1489 100.308 16.8473 100.441 16.4695C100.577 16.0916 100.645 15.6707 100.645 15.2067C100.645 14.7393 100.577 14.3168 100.441 13.9389C100.308 13.5578 100.106 13.2545 99.8345 13.0291C99.5627 12.8037 99.2247 12.6911 98.8203 12.6911C98.406 12.6911 98.0613 12.8037 97.7862 13.0291C97.5144 13.2545 97.3106 13.5578 97.1747 13.9389C97.0421 14.3168 96.9759 14.7393 96.9759 15.2067C96.9759 15.6707 97.0421 16.0916 97.1747 16.4695C97.3106 16.8473 97.5144 17.1489 97.7862 17.3743C98.0613 17.5964 98.406 17.7074 98.8203 17.7074ZM103.997 19V11.3636H105.742V12.6364H105.822C105.961 12.1955 106.199 11.8558 106.537 11.6172C106.879 11.3752 107.268 11.2543 107.706 11.2543C107.805 11.2543 107.916 11.2592 108.039 11.2692C108.165 11.2758 108.269 11.2874 108.352 11.304V12.9595C108.276 12.933 108.155 12.9098 107.989 12.8899C107.827 12.8667 107.669 12.8551 107.517 12.8551C107.189 12.8551 106.894 12.9264 106.632 13.0689C106.373 13.2081 106.17 13.402 106.02 13.6506C105.871 13.8991 105.797 14.1858 105.797 14.5107V19H103.997ZM112.614 19.1491C111.848 19.1491 111.187 18.9901 110.63 18.6719C110.077 18.3504 109.651 17.8963 109.353 17.3097C109.054 16.7197 108.905 16.0253 108.905 15.2266C108.905 14.4411 109.054 13.7517 109.353 13.1584C109.654 12.5618 110.075 12.0978 110.615 11.7663C111.156 11.4316 111.79 11.2642 112.52 11.2642C112.99 11.2642 113.434 11.3404 113.852 11.4929C114.273 11.642 114.644 11.8741 114.966 12.1889C115.29 12.5038 115.546 12.9048 115.731 13.392C115.917 13.8759 116.01 14.4527 116.01 15.1222V15.674H109.75V14.4609H114.284C114.281 14.1162 114.207 13.8097 114.061 13.5412C113.915 13.2694 113.711 13.0556 113.449 12.8999C113.191 12.7441 112.889 12.6662 112.544 12.6662C112.176 12.6662 111.853 12.7557 111.575 12.9347C111.297 13.1103 111.079 13.3423 110.924 13.6307C110.771 13.9157 110.693 14.2289 110.69 14.5703V15.6293C110.69 16.0734 110.771 16.4545 110.934 16.7727C111.096 17.0876 111.323 17.3295 111.615 17.4986C111.906 17.6643 112.248 17.7472 112.639 17.7472C112.901 17.7472 113.138 17.7107 113.35 17.6378C113.562 17.5616 113.746 17.4505 113.902 17.3047C114.057 17.1589 114.175 16.9782 114.255 16.7628L115.935 16.9517C115.829 17.3958 115.627 17.7836 115.328 18.1151C115.033 18.4432 114.656 18.6984 114.195 18.8807C113.734 19.0597 113.207 19.1491 112.614 19.1491Z" fill="#111827"/>
<path d="M57.0739 40V32.3636H58.2074V33.5568H58.3068C58.4659 33.1491 58.7228 32.8326 59.0774 32.6072C59.4321 32.3786 59.858 32.2642 60.3551 32.2642C60.8589 32.2642 61.2782 32.3786 61.6129 32.6072C61.951 32.8326 62.2145 33.1491 62.4034 33.5568H62.483C62.6785 33.1624 62.9718 32.8492 63.3629 32.6172C63.754 32.3819 64.223 32.2642 64.7699 32.2642C65.4527 32.2642 66.0111 32.478 66.4453 32.9055C66.8795 33.3298 67.0966 33.991 67.0966 34.8892V40H65.9233V34.8892C65.9233 34.3258 65.7692 33.9231 65.4609 33.6811C65.1527 33.4392 64.7898 33.3182 64.3722 33.3182C63.8352 33.3182 63.4193 33.4806 63.1243 33.8054C62.8293 34.1269 62.6818 34.5346 62.6818 35.0284V40H61.4886V34.7699C61.4886 34.3357 61.3478 33.986 61.0661 33.7209C60.7843 33.4524 60.4214 33.3182 59.9773 33.3182C59.6723 33.3182 59.3873 33.3994 59.1222 33.5618C58.8603 33.7242 58.6482 33.9496 58.4858 34.2379C58.3267 34.523 58.2472 34.8527 58.2472 35.2273V40H57.0739ZM69.7241 42.8636C69.5252 42.8636 69.3479 42.8471 69.1921 42.8139C69.0363 42.7841 68.9286 42.7543 68.869 42.7244L69.1673 41.6903C69.4523 41.7633 69.7042 41.7898 69.9229 41.7699C70.1417 41.75 70.3356 41.6522 70.5046 41.4766C70.677 41.3042 70.8344 41.0241 70.9769 40.6364L71.1957 40.0398L68.3718 32.3636H69.6445L71.7525 38.4489H71.832L73.94 32.3636H75.2127L71.9712 41.1136C71.8254 41.508 71.6448 41.8345 71.4293 42.093C71.2139 42.3549 70.9637 42.5488 70.6786 42.6747C70.3969 42.8007 70.0787 42.8636 69.7241 42.8636ZM82.1705 34.0739L81.1165 34.3722C81.0502 34.1965 80.9524 34.0258 80.8232 33.8601C80.6972 33.6911 80.5249 33.5518 80.3061 33.4425C80.0874 33.3331 79.8073 33.2784 79.4659 33.2784C78.9986 33.2784 78.6091 33.3861 78.2976 33.6016C77.9893 33.8137 77.8352 34.0838 77.8352 34.4119C77.8352 34.7036 77.9413 34.9339 78.1534 35.103C78.3655 35.272 78.697 35.4129 79.1477 35.5256L80.2812 35.804C80.964 35.9697 81.4728 36.2232 81.8075 36.5646C82.1423 36.9027 82.3097 37.3385 82.3097 37.8722C82.3097 38.3097 82.1837 38.7008 81.9318 39.0455C81.6832 39.3902 81.3352 39.6619 80.8878 39.8608C80.4403 40.0597 79.92 40.1591 79.3267 40.1591C78.5478 40.1591 77.9032 39.9901 77.3928 39.652C76.8823 39.3139 76.5592 38.8201 76.4233 38.1705L77.5369 37.892C77.643 38.303 77.8435 38.6113 78.1385 38.8168C78.4368 39.0223 78.8262 39.125 79.3068 39.125C79.8537 39.125 80.2879 39.009 80.6094 38.777C80.9342 38.5417 81.0966 38.2599 81.0966 37.9318C81.0966 37.6667 81.0038 37.4446 80.8182 37.2656C80.6326 37.0833 80.3475 36.9474 79.9631 36.858L78.6903 36.5597C77.991 36.3939 77.4773 36.1371 77.1491 35.7891C76.8243 35.4377 76.6619 34.9986 76.6619 34.4716C76.6619 34.0407 76.7829 33.6596 77.0249 33.3281C77.2701 32.9967 77.6032 32.7365 78.0241 32.5476C78.4484 32.3587 78.929 32.2642 79.4659 32.2642C80.2216 32.2642 80.8149 32.4299 81.2457 32.7614C81.6799 33.0928 81.9882 33.5303 82.1705 34.0739ZM87.3968 32.3636V33.358H83.4395V32.3636H87.3968ZM84.5929 30.5341H85.7662V37.8125C85.7662 38.1439 85.8142 38.3925 85.9103 38.5582C86.0098 38.7206 86.1357 38.83 86.2882 38.8864C86.444 38.9394 86.608 38.9659 86.7804 38.9659C86.9096 38.9659 87.0157 38.9593 87.0985 38.946C87.1814 38.9295 87.2477 38.9162 87.2974 38.9062L87.536 39.9602C87.4565 39.9901 87.3455 40.0199 87.2029 40.0497C87.0604 40.0829 86.8798 40.0994 86.661 40.0994C86.3296 40.0994 86.0048 40.0282 85.6866 39.8857C85.3717 39.7431 85.1099 39.526 84.9011 39.2344C84.6956 38.9427 84.5929 38.5748 84.5929 38.1307V30.5341ZM92.182 40.1591C91.4926 40.1591 90.8877 39.995 90.3674 39.6669C89.8503 39.3388 89.446 38.8797 89.1543 38.2898C88.8659 37.6998 88.7218 37.0104 88.7218 36.2216C88.7218 35.4261 88.8659 34.7318 89.1543 34.1385C89.446 33.5452 89.8503 33.0845 90.3674 32.7564C90.8877 32.4283 91.4926 32.2642 92.182 32.2642C92.8714 32.2642 93.4746 32.4283 93.9917 32.7564C94.512 33.0845 94.9164 33.5452 95.2047 34.1385C95.4964 34.7318 95.6422 35.4261 95.6422 36.2216C95.6422 37.0104 95.4964 37.6998 95.2047 38.2898C94.9164 38.8797 94.512 39.3388 93.9917 39.6669C93.4746 39.995 92.8714 40.1591 92.182 40.1591ZM92.182 39.1051C92.7057 39.1051 93.1365 38.9709 93.4746 38.7024C93.8127 38.4339 94.0629 38.081 94.2253 37.6435C94.3877 37.206 94.4689 36.732 94.4689 36.2216C94.4689 35.7112 94.3877 35.2356 94.2253 34.7947C94.0629 34.3539 93.8127 33.9976 93.4746 33.7259C93.1365 33.4541 92.7057 33.3182 92.182 33.3182C91.6583 33.3182 91.2275 33.4541 90.8894 33.7259C90.5513 33.9976 90.3011 34.3539 90.1387 34.7947C89.9763 35.2356 89.8951 35.7112 89.8951 36.2216C89.8951 36.732 89.9763 37.206 90.1387 37.6435C90.3011 38.081 90.5513 38.4339 90.8894 38.7024C91.2275 38.9709 91.6583 39.1051 92.182 39.1051ZM97.4332 40V32.3636H98.5668V33.517H98.6463C98.7855 33.1392 99.0374 32.8326 99.402 32.5973C99.7666 32.362 100.178 32.2443 100.635 32.2443C100.721 32.2443 100.829 32.246 100.958 32.2493C101.087 32.2526 101.185 32.2576 101.251 32.2642V33.4574C101.212 33.4474 101.121 33.4325 100.978 33.4126C100.839 33.3894 100.691 33.3778 100.536 33.3778C100.164 33.3778 99.8329 33.4557 99.5412 33.6115C99.2528 33.764 99.0241 33.9761 98.8551 34.2479C98.6894 34.5163 98.6065 34.8229 98.6065 35.1676V40H97.4332ZM105.612 40.1591C104.876 40.1591 104.241 39.9967 103.707 39.6719C103.177 39.3438 102.768 38.8864 102.479 38.2997C102.194 37.7098 102.052 37.0237 102.052 36.2415C102.052 35.4593 102.194 34.7699 102.479 34.1733C102.768 33.5734 103.169 33.1061 103.683 32.7713C104.2 32.4332 104.803 32.2642 105.492 32.2642C105.89 32.2642 106.283 32.3305 106.67 32.4631C107.058 32.5956 107.411 32.8111 107.729 33.1094C108.048 33.4044 108.301 33.7955 108.49 34.2827C108.679 34.7699 108.773 35.3698 108.773 36.0824V36.5795H102.887V35.5653H107.58C107.58 35.1345 107.494 34.75 107.322 34.4119C107.153 34.0739 106.911 33.8071 106.596 33.6115C106.284 33.416 105.916 33.3182 105.492 33.3182C105.025 33.3182 104.621 33.4342 104.279 33.6662C103.941 33.8949 103.681 34.1932 103.499 34.5611C103.316 34.929 103.225 35.3234 103.225 35.7443V36.4205C103.225 36.9972 103.325 37.486 103.523 37.8871C103.726 38.2848 104.006 38.5881 104.364 38.7969C104.722 39.0024 105.138 39.1051 105.612 39.1051C105.92 39.1051 106.198 39.062 106.447 38.9759C106.699 38.8864 106.916 38.7538 107.098 38.5781C107.28 38.3991 107.421 38.1771 107.521 37.9119L108.654 38.2301C108.535 38.6146 108.334 38.9527 108.053 39.2443C107.771 39.5327 107.423 39.758 107.009 39.9205C106.594 40.0795 106.129 40.1591 105.612 40.1591ZM111.413 40.0795C111.168 40.0795 110.958 39.9917 110.782 39.8161C110.606 39.6404 110.518 39.4299 110.518 39.1847C110.518 38.9394 110.606 38.7289 110.782 38.5533C110.958 38.3776 111.168 38.2898 111.413 38.2898C111.659 38.2898 111.869 38.3776 112.045 38.5533C112.22 38.7289 112.308 38.9394 112.308 39.1847C112.308 39.3471 112.267 39.4962 112.184 39.6321C112.104 39.768 111.997 39.8774 111.861 39.9602C111.728 40.0398 111.579 40.0795 111.413 40.0795ZM119.823 34.0739L118.769 34.3722C118.703 34.1965 118.605 34.0258 118.475 33.8601C118.35 33.6911 118.177 33.5518 117.958 33.4425C117.74 33.3331 117.46 33.2784 117.118 33.2784C116.651 33.2784 116.261 33.3861 115.95 33.6016C115.642 33.8137 115.488 34.0838 115.488 34.4119C115.488 34.7036 115.594 34.9339 115.806 35.103C116.018 35.272 116.349 35.4129 116.8 35.5256L117.934 35.804C118.616 35.9697 119.125 36.2232 119.46 36.5646C119.795 36.9027 119.962 37.3385 119.962 37.8722C119.962 38.3097 119.836 38.7008 119.584 39.0455C119.336 39.3902 118.988 39.6619 118.54 39.8608C118.093 40.0597 117.572 40.1591 116.979 40.1591C116.2 40.1591 115.556 39.9901 115.045 39.652C114.535 39.3139 114.212 38.8201 114.076 38.1705L115.189 37.892C115.295 38.303 115.496 38.6113 115.791 38.8168C116.089 39.0223 116.479 39.125 116.959 39.125C117.506 39.125 117.94 39.009 118.262 38.777C118.587 38.5417 118.749 38.2599 118.749 37.9318C118.749 37.6667 118.656 37.4446 118.471 37.2656C118.285 37.0833 118 36.9474 117.615 36.858L116.343 36.5597C115.643 36.3939 115.13 36.1371 114.801 35.7891C114.477 35.4377 114.314 34.9986 114.314 34.4716C114.314 34.0407 114.435 33.6596 114.677 33.3281C114.922 32.9967 115.256 32.7365 115.676 32.5476C116.101 32.3587 116.581 32.2642 117.118 32.2642C117.874 32.2642 118.467 32.4299 118.898 32.7614C119.332 33.0928 119.641 33.5303 119.823 34.0739ZM122.901 35.4062V40H121.728V29.8182H122.901V33.5568H123.001C123.18 33.1624 123.448 32.8492 123.806 32.6172C124.168 32.3819 124.648 32.2642 125.248 32.2642C125.768 32.2642 126.224 32.3686 126.615 32.5774C127.006 32.7829 127.31 33.0994 127.525 33.527C127.744 33.9512 127.853 34.4915 127.853 35.1477V40H126.68V35.2273C126.68 34.6207 126.522 34.1518 126.208 33.8203C125.896 33.4856 125.463 33.3182 124.91 33.3182C124.526 33.3182 124.181 33.3994 123.876 33.5618C123.574 33.7242 123.336 33.9612 123.16 34.2727C122.988 34.5843 122.901 34.9621 122.901 35.4062ZM133.102 40.1591C132.413 40.1591 131.808 39.995 131.287 39.6669C130.77 39.3388 130.366 38.8797 130.074 38.2898C129.786 37.6998 129.642 37.0104 129.642 36.2216C129.642 35.4261 129.786 34.7318 130.074 34.1385C130.366 33.5452 130.77 33.0845 131.287 32.7564C131.808 32.4283 132.413 32.2642 133.102 32.2642C133.791 32.2642 134.395 32.4283 134.912 32.7564C135.432 33.0845 135.836 33.5452 136.125 34.1385C136.416 34.7318 136.562 35.4261 136.562 36.2216C136.562 37.0104 136.416 37.6998 136.125 38.2898C135.836 38.8797 135.432 39.3388 134.912 39.6669C134.395 39.995 133.791 40.1591 133.102 40.1591ZM133.102 39.1051C133.626 39.1051 134.056 38.9709 134.395 38.7024C134.733 38.4339 134.983 38.081 135.145 37.6435C135.308 37.206 135.389 36.732 135.389 36.2216C135.389 35.7112 135.308 35.2356 135.145 34.7947C134.983 34.3539 134.733 33.9976 134.395 33.7259C134.056 33.4541 133.626 33.3182 133.102 33.3182C132.578 33.3182 132.147 33.4541 131.809 33.7259C131.471 33.9976 131.221 34.3539 131.059 34.7947C130.896 35.2356 130.815 35.7112 130.815 36.2216C130.815 36.732 130.896 37.206 131.059 37.6435C131.221 38.081 131.471 38.4339 131.809 38.7024C132.147 38.9709 132.578 39.1051 133.102 39.1051ZM138.353 42.8636V32.3636H139.487V33.5767H139.626C139.712 33.4441 139.831 33.2751 139.984 33.0696C140.14 32.8608 140.362 32.6752 140.65 32.5128C140.942 32.3471 141.336 32.2642 141.833 32.2642C142.476 32.2642 143.043 32.425 143.534 32.7464C144.024 33.0679 144.407 33.5237 144.682 34.1136C144.957 34.7036 145.095 35.3996 145.095 36.2017C145.095 37.0104 144.957 37.7114 144.682 38.3047C144.407 38.8946 144.026 39.352 143.539 39.6768C143.051 39.9983 142.49 40.1591 141.853 40.1591C141.363 40.1591 140.97 40.0779 140.675 39.9155C140.38 39.7498 140.153 39.5625 139.994 39.3537C139.835 39.1416 139.712 38.9659 139.626 38.8267H139.526V42.8636H138.353ZM139.507 36.1818C139.507 36.7585 139.591 37.2673 139.76 37.7081C139.929 38.1456 140.176 38.4886 140.501 38.7372C140.826 38.9825 141.223 39.1051 141.694 39.1051C142.185 39.1051 142.594 38.9759 142.922 38.7173C143.253 38.4555 143.502 38.1042 143.668 37.6634C143.837 37.2192 143.921 36.7254 143.921 36.1818C143.921 35.6449 143.838 35.161 143.673 34.7301C143.51 34.2959 143.263 33.9529 142.932 33.701C142.604 33.4458 142.191 33.3182 141.694 33.3182C141.217 33.3182 140.816 33.4392 140.491 33.6811C140.166 33.9197 139.921 34.2545 139.755 34.6854C139.589 35.1129 139.507 35.6117 139.507 36.1818ZM146.884 40V32.3636H148.058V40H146.884ZM147.481 31.0909C147.252 31.0909 147.055 31.013 146.889 30.8572C146.727 30.7015 146.646 30.5142 146.646 30.2955C146.646 30.0767 146.727 29.8894 146.889 29.7337C147.055 29.5779 147.252 29.5 147.481 29.5C147.71 29.5 147.905 29.5779 148.068 29.7337C148.233 29.8894 148.316 30.0767 148.316 30.2955C148.316 30.5142 148.233 30.7015 148.068 30.8572C147.905 31.013 147.71 31.0909 147.481 31.0909ZM153.607 32.3636V33.358H149.491V32.3636H153.607ZM150.724 40V31.3097C150.724 30.8722 150.826 30.5076 151.032 30.2159C151.237 29.9242 151.504 29.7055 151.832 29.5597C152.161 29.4138 152.507 29.3409 152.871 29.3409C153.16 29.3409 153.395 29.3641 153.577 29.4105C153.76 29.4569 153.896 29.5 153.985 29.5398L153.647 30.554C153.587 30.5341 153.504 30.5092 153.398 30.4794C153.296 30.4496 153.16 30.4347 152.991 30.4347C152.603 30.4347 152.323 30.5324 152.151 30.728C151.982 30.9235 151.897 31.2102 151.897 31.5881V40H150.724ZM156.007 42.8636C155.808 42.8636 155.631 42.8471 155.475 42.8139C155.32 42.7841 155.212 42.7543 155.152 42.7244L155.45 41.6903C155.735 41.7633 155.987 41.7898 156.206 41.7699C156.425 41.75 156.619 41.6522 156.788 41.4766C156.96 41.3042 157.118 41.0241 157.26 40.6364L157.479 40.0398L154.655 32.3636H155.928L158.036 38.4489H158.115L160.223 32.3636H161.496L158.254 41.1136C158.109 41.508 157.928 41.8345 157.713 42.093C157.497 42.3549 157.247 42.5488 156.962 42.6747C156.68 42.8007 156.362 42.8636 156.007 42.8636ZM163.421 40.0795C163.176 40.0795 162.965 39.9917 162.79 39.8161C162.614 39.6404 162.526 39.4299 162.526 39.1847C162.526 38.9394 162.614 38.7289 162.79 38.5533C162.965 38.3776 163.176 38.2898 163.421 38.2898C163.666 38.2898 163.877 38.3776 164.053 38.5533C164.228 38.7289 164.316 38.9394 164.316 39.1847C164.316 39.3471 164.275 39.4962 164.192 39.6321C164.112 39.768 164.004 39.8774 163.869 39.9602C163.736 40.0398 163.587 40.0795 163.421 40.0795ZM169.524 40.1591C168.808 40.1591 168.191 39.9901 167.674 39.652C167.157 39.3139 166.76 38.8482 166.481 38.255C166.203 37.6617 166.064 36.9839 166.064 36.2216C166.064 35.446 166.206 34.7616 166.491 34.1683C166.779 33.5717 167.181 33.1061 167.694 32.7713C168.211 32.4332 168.815 32.2642 169.504 32.2642C170.041 32.2642 170.525 32.3636 170.956 32.5625C171.386 32.7614 171.739 33.0398 172.015 33.3977C172.29 33.7557 172.46 34.1733 172.527 34.6506H171.353C171.264 34.3026 171.065 33.9943 170.757 33.7259C170.452 33.4541 170.041 33.3182 169.524 33.3182C169.066 33.3182 168.665 33.4375 168.321 33.6761C167.979 33.9115 167.712 34.2446 167.52 34.6754C167.331 35.103 167.237 35.6051 167.237 36.1818C167.237 36.7718 167.33 37.2855 167.515 37.723C167.704 38.1605 167.969 38.5002 168.311 38.7422C168.655 38.9841 169.06 39.1051 169.524 39.1051C169.829 39.1051 170.105 39.0521 170.354 38.946C170.603 38.84 170.813 38.6875 170.985 38.4886C171.158 38.2898 171.28 38.0511 171.353 37.7727H172.527C172.46 38.2235 172.296 38.6295 172.034 38.9908C171.776 39.3487 171.433 39.6338 171.005 39.8459C170.581 40.0547 170.087 40.1591 169.524 40.1591ZM177.344 40.1591C176.655 40.1591 176.05 39.995 175.529 39.6669C175.012 39.3388 174.608 38.8797 174.316 38.2898C174.028 37.6998 173.884 37.0104 173.884 36.2216C173.884 35.4261 174.028 34.7318 174.316 34.1385C174.608 33.5452 175.012 33.0845 175.529 32.7564C176.05 32.4283 176.655 32.2642 177.344 32.2642C178.033 32.2642 178.637 32.4283 179.154 32.7564C179.674 33.0845 180.078 33.5452 180.367 34.1385C180.658 34.7318 180.804 35.4261 180.804 36.2216C180.804 37.0104 180.658 37.6998 180.367 38.2898C180.078 38.8797 179.674 39.3388 179.154 39.6669C178.637 39.995 178.033 40.1591 177.344 40.1591ZM177.344 39.1051C177.868 39.1051 178.299 38.9709 178.637 38.7024C178.975 38.4339 179.225 38.081 179.387 37.6435C179.55 37.206 179.631 36.732 179.631 36.2216C179.631 35.7112 179.55 35.2356 179.387 34.7947C179.225 34.3539 178.975 33.9976 178.637 33.7259C178.299 33.4541 177.868 33.3182 177.344 33.3182C176.82 33.3182 176.39 33.4541 176.051 33.7259C175.713 33.9976 175.463 34.3539 175.301 34.7947C175.138 35.2356 175.057 35.7112 175.057 36.2216C175.057 36.732 175.138 37.206 175.301 37.6435C175.463 38.081 175.713 38.4339 176.051 38.7024C176.39 38.9709 176.82 39.1051 177.344 39.1051ZM182.595 40V32.3636H183.729V33.5568H183.828C183.987 33.1491 184.244 32.8326 184.599 32.6072C184.954 32.3786 185.379 32.2642 185.877 32.2642C186.38 32.2642 186.8 32.3786 187.134 32.6072C187.472 32.8326 187.736 33.1491 187.925 33.5568H188.004C188.2 33.1624 188.493 32.8492 188.884 32.6172C189.276 32.3819 189.744 32.2642 190.291 32.2642C190.974 32.2642 191.533 32.478 191.967 32.9055C192.401 33.3298 192.618 33.991 192.618 34.8892V40H191.445V34.8892C191.445 34.3258 191.291 33.9231 190.982 33.6811C190.674 33.4392 190.311 33.3182 189.894 33.3182C189.357 33.3182 188.941 33.4806 188.646 33.8054C188.351 34.1269 188.203 34.5346 188.203 35.0284V40H187.01V34.7699C187.01 34.3357 186.869 33.986 186.588 33.7209C186.306 33.4524 185.943 33.3182 185.499 33.3182C185.194 33.3182 184.909 33.3994 184.644 33.5618C184.382 33.7242 184.17 33.9496 184.007 34.2379C183.848 34.523 183.769 34.8527 183.769 35.2273V40H182.595Z" fill="#6B7280"/>
</svg>
