<svg width="47" height="47" viewBox="0 0 47 47" fill="none" xmlns="http://www.w3.org/2000/svg">
<circle cx="23.5" cy="23.5" r="23.5" fill="#542873"/>
<path d="M23.5831 23.393C23.5593 23.393 23.5355 23.393 23.5069 23.393C23.4974 23.393 23.4878 23.393 23.4783 23.393C23.464 23.393 23.445 23.393 23.4307 23.393C22.0352 23.3692 20.9064 22.8786 20.0729 21.9404C18.2391 19.8733 18.544 16.3297 18.5773 15.9915C18.6964 13.4529 19.8966 12.2384 20.8873 11.6716C21.6256 11.2477 22.4876 11.0191 23.4497 11H23.4831C23.4878 11 23.4974 11 23.5021 11H23.5307C24.0594 11 25.0977 11.0857 26.0931 11.6525C27.0934 12.2193 28.3127 13.4338 28.4317 15.9915C28.4651 16.3297 28.7699 19.8733 26.9362 21.9404C26.1074 22.8786 24.9786 23.3692 23.5831 23.393ZM27.16 16.1106C27.16 16.0963 27.1553 16.082 27.1553 16.0725C26.9981 12.6575 24.5738 12.2907 23.5355 12.2907H23.5164C23.5069 12.2907 23.4926 12.2907 23.4783 12.2907C22.1923 12.3193 20.0062 12.8432 19.8585 16.0725C19.8585 16.0868 19.8585 16.1011 19.8538 16.1106C19.849 16.1439 19.5156 19.3827 21.0302 21.0878C21.6303 21.7641 22.4305 22.0975 23.4831 22.1071C23.4926 22.1071 23.4974 22.1071 23.5069 22.1071C23.5164 22.1071 23.5212 22.1071 23.5307 22.1071C24.5785 22.0975 25.3835 21.7641 25.9788 21.0878C27.4887 19.3922 27.1648 16.1392 27.16 16.1106Z" fill="white"/>
<path d="M13.7192 29.2705C13.7192 29.2657 13.7192 29.2609 13.7192 29.2562C13.7192 29.2181 13.724 29.18 13.724 29.1371C13.7526 28.1941 13.8145 25.9888 15.8816 25.2839C15.8959 25.2792 15.9149 25.2744 15.9292 25.2696C18.0773 24.7219 19.8634 23.4836 19.8824 23.4693C20.173 23.2645 20.573 23.3359 20.7779 23.6264C20.9827 23.917 20.9112 24.3171 20.6207 24.5219C20.5397 24.579 18.6441 25.8983 16.2722 26.508C15.1624 26.9033 15.0386 28.0893 15.0052 29.1752C15.0052 29.2181 15.0052 29.2562 15.0005 29.2943C14.9957 29.7229 15.0243 30.385 15.1005 30.766C15.8721 31.2042 18.8965 32.7188 23.4975 32.7188C28.0794 32.7188 31.1229 31.1994 31.8992 30.7613C31.9754 30.3802 32.0088 29.7182 31.9992 29.2895C31.9992 29.2514 31.9945 29.2133 31.9945 29.1704C31.9611 28.0845 31.8373 26.8985 30.7275 26.5032C28.3556 25.8936 26.46 24.5695 26.379 24.5171C26.0885 24.3123 26.017 23.9122 26.2218 23.6217C26.4266 23.3311 26.8267 23.2597 27.1173 23.4645C27.1363 23.4788 28.9129 24.7171 31.0705 25.2649C31.0895 25.2696 31.1038 25.2744 31.1181 25.2792C33.1852 25.9888 33.2471 28.1941 33.2757 29.1323C33.2757 29.1752 33.2757 29.2133 33.2804 29.2514C33.2804 29.2562 33.2804 29.2609 33.2804 29.2657C33.2852 29.5134 33.29 30.7851 33.0375 31.4233C32.9899 31.5471 32.9042 31.6519 32.7899 31.7234C32.647 31.8186 29.2225 34 23.4927 34C17.7629 34 14.3384 31.8139 14.1955 31.7234C14.086 31.6519 13.9955 31.5471 13.9479 31.4233C13.7097 30.7898 13.7145 29.5181 13.7192 29.2705Z" fill="white"/>
</svg>
